<?xml version="1.0" encoding="utf-8"?>
<!-- Generator: Adobe Illustrator 23.0.3, SVG Export Plug-In . SVG Version: 6.00 Build 0)  -->
<svg version="1.1" id="Ebene_1" xmlns="http://www.w3.org/2000/svg" xmlns:xlink="http://www.w3.org/1999/xlink" x="0px" y="0px"
	 viewBox="0 0 557.7 246" style="enable-background:new 0 0 557.7 246;" xml:space="preserve">
<style type="text/css">
	.st0{fill:url(#SVGID_1_);}
	.st1{fill:none;}
	.st2{fill:url(#SVGID_2_);}
	.st3{opacity:0;fill:#FFFFFF;stroke:#000000;stroke-miterlimit:10;}
</style>
<title>cloud_1</title>
<g>
	<g>
		
			<linearGradient id="SVGID_1_" gradientUnits="userSpaceOnUse" x1="529.8924" y1="841.0864" x2="-54.9576" y2="1084.6064" gradientTransform="matrix(1 0 0 1 49 -833)">
			<stop  offset="0" style="stop-color:#E8F7FF"/>
			<stop  offset="1" style="stop-color:#BFE8FF"/>
		</linearGradient>
		<path class="st0" d="M45.1,206c-24.2,0-44-19.5-44.1-43.5V162c0-48.5,39.1-87.9,87.2-87.9c1,0,2-0.6,2.4-1.6
			C108.8,32.1,148.9,6.1,193.2,6c23,0,45.4,7,64.2,20.2c0.4,0.3,1,0.5,1.5,0.5c0.6,0,1.2-0.2,1.6-0.6
			c52.8-40.6,128.6-30.8,169.3,22.1c7.2,9.4,13,19.8,17.2,30.9c0.4,1.1,1.4,1.8,2.5,1.8l0.8-0.2c8.6-3.1,17.7-4.7,26.9-4.7
			c43.8,0,79.5,35.9,79.5,80v0.6c-0.2,27.2-22.7,49.4-50.2,49.4H45.1z"/>
		<path d="M334.2,1.5c50,0,94.7,31,112.3,77.8c0.5,1.2,1.7,2,3,2.1l1-0.2c8.6-3.1,17.6-4.7,26.7-4.7c43.5,0,79,35.7,79,79.5v0.6
			c-0.2,26.9-22.5,48.9-49.7,48.9H45.1c-23.9,0-43.5-19.3-43.6-43V162c0-48.2,38.9-87.4,86.7-87.4c1.3,0,2.4-0.7,2.9-1.9
			c25.2-56.4,91.3-81.6,147.7-56.5c6.4,2.9,12.5,6.4,18.3,10.4c0.5,0.4,1.2,0.6,1.8,0.6c0.7,0,1.4-0.2,1.9-0.7
			C281.8,10.2,307.6,1.4,334.2,1.5 M334.2,0.5c-26.8-0.1-52.9,8.8-74,25.3c-0.4,0.2-0.8,0.4-1.3,0.4c-0.4,0-0.9-0.1-1.2-0.4
			C206.8-9.9,136.5,2.5,100.9,53.5c0,0-0.1,0.1-0.1,0.1c-4.1,5.9-7.7,12.1-10.6,18.7c-0.4,0.8-1.1,1.3-2,1.3l0,0
			c-48.4,0-87.7,39.6-87.7,88.4v0.5c0.1,24.4,20.2,44,44.6,44h461.4c27.7,0,50.5-22.2,50.7-49.9V156c0-44.5-35.8-80.5-80-80.5
			c-9.2,0-18.3,1.6-27,4.7l-0.7,0.2c-0.9,0-1.7-0.6-2-1.4C429.8,31.8,384.6,0.5,334.2,0.5z"/>
		<rect x="1.5" y="1.5" class="st1" width="554.7" height="276"/>
		
			<radialGradient id="SVGID_2_" cx="222" cy="-7194.999" r="199.5" gradientTransform="matrix(1 0 0 -5.000000e-02 49 -124.3243)" gradientUnits="userSpaceOnUse">
			<stop  offset="0" style="stop-color:#B3B3B3"/>
			<stop  offset="1" style="stop-color:#FFFFFF;stop-opacity:0"/>
		</radialGradient>
		<ellipse class="st2" cx="271" cy="236" rx="216.5" ry="9.5"/>
		<rect x="1.5" y="1.5" class="st1" width="554.7" height="250"/>
	</g>
</g>
<rect x="0.5" y="0.5" class="st3" width="556.7" height="245"/>
</svg>
