<svg xmlns="http://www.w3.org/2000/svg" xmlns:xlink="http://www.w3.org/1999/xlink" viewBox="0 0 1496.7 1181.8"><defs><style>.cls-1,.cls-2{mix-blend-mode:multiply;}.cls-1{filter:url(#luminosity-invert);}.cls-13,.cls-2{opacity:0.71;}.cls-3{fill:url(#Unbenannter_Verlauf_2);}.cls-11,.cls-12,.cls-15,.cls-16,.cls-4,.cls-8{fill:none;}.cls-11,.cls-12,.cls-4{stroke:#000;}.cls-11,.cls-12,.cls-15,.cls-16,.cls-17,.cls-18,.cls-4,.cls-8{stroke-miterlimit:10;}.cls-5{isolation:isolate;}.cls-6{opacity:0.46;}.cls-7{fill:url(#Unbenannter_Verlauf_6);}.cls-8{stroke:#1c1f5a;}.cls-11,.cls-12,.cls-15,.cls-16,.cls-8{stroke-width:3px;}.cls-9{mask:url(#mask);}.cls-10{opacity:0.5;}.cls-12,.cls-16,.cls-18{stroke-linecap:square;}.cls-13{mix-blend-mode:screen;}.cls-14,.cls-17,.cls-18{fill:#fff;}.cls-15,.cls-16{stroke:#3c5e66;}.cls-17,.cls-18{stroke:#404040;}</style><linearGradient id="Unbenannter_Verlauf_2" x1="743.5" y1="1030.86" x2="757.75" y2="607.51" gradientUnits="userSpaceOnUse"><stop offset="0" stop-color="#fff"/><stop offset="0.59"/></linearGradient><linearGradient id="Unbenannter_Verlauf_6" x1="732.63" y1="1055.69" x2="720.42" y2="493.94" gradientUnits="userSpaceOnUse"><stop offset="0" stop-color="#fff"/><stop offset="1" stop-color="#9fa8b5"/></linearGradient><filter id="luminosity-invert" filterUnits="userSpaceOnUse" color-interpolation-filters="sRGB"><feColorMatrix values="-1 0 0 0 1 0 -1 0 0 1 0 0 -1 0 1 0 0 0 1 0"/></filter><mask id="mask" x="244.22" y="698.29" width="1007" height="432" maskUnits="userSpaceOnUse"><g class="cls-1"><image class="cls-2" width="1007" height="432" transform="translate(244.2 698.3)" xlink:href="human_muscles3.png"/><path class="cls-3" d="M747.8,778.9C520,778.9,335.4,835,335.4,904.2c0,39.6,60.6,74.9,155.1,97.8,13.1,3.2,26.7,6.1,41,8.8,20.1,3.8,41.4,7,63.7,9.7,10.5,1.3,21.3,2.5,32.2,3.5,38.1,3.5,78.5,5.4,120.4,5.4,39.1,0,76.9-1.7,112.8-4.8,12.6-1,25-2.3,37.2-3.8,25.8-3,50.4-6.9,73.5-11.4,11.3-2.2,22.2-4.6,32.8-7.1,95-23,156-58.4,156-98.1C1160.1,835,975.5,778.9,747.8,778.9Z"/><path class="cls-4" d="M747.8,778.9C520,778.9,335.4,835,335.4,904.2c0,39.6,60.6,74.9,155.1,97.8,13.1,3.2,26.7,6.1,41,8.8,20.1,3.8,41.4,7,63.7,9.7,10.5,1.3,21.3,2.5,32.2,3.5,38.1,3.5,78.5,5.4,120.4,5.4,39.1,0,76.9-1.7,112.8-4.8,12.6-1,25-2.3,37.2-3.8,25.8-3,50.4-6.9,73.5-11.4,11.3-2.2,22.2-4.6,32.8-7.1,95-23,156-58.4,156-98.1C1160.1,835,975.5,778.9,747.8,778.9Z"/></g></mask></defs><title>human_muscles</title><g class="cls-5"><g id="Ebene_1" data-name="Ebene 1"><g id="Plattform"><image class="cls-6" width="1290" height="758" transform="translate(84.2 578.3)" xlink:href="human_muscles1.png"/><image class="cls-2" width="938" height="398" transform="translate(260.2 722.3)" xlink:href="human_muscles2.png"/><path class="cls-7" d="M1114.9,898.4c0,29.3-35.9,55.9-95.1,76.3a549.1,549.1,0,0,1-56.7,16c-21.2,4.9-44.1,9.1-68.4,12.6-11.1,1.5-22.5,3-34.1,4.3a1238,1238,0,0,1-131.4,6.9c-34.8,0-68.6-1.4-100.7-4-13.4-1.1-26.6-2.4-39.4-3.9-21.6-2.6-42.3-5.7-61.8-9.3-14.4-2.7-28.1-5.6-41.2-8.8-87-21.3-142.6-53.7-142.6-90.1,0-64,172.7-116,385.7-116S1114.9,834.4,1114.9,898.4Z"/><path class="cls-8" d="M1114.9,898.4c0,29.3-35.9,55.9-95.1,76.3a549.1,549.1,0,0,1-56.7,16c-21.2,4.9-44.1,9.1-68.4,12.6-11.1,1.5-22.5,3-34.1,4.3a1238,1238,0,0,1-131.4,6.9c-34.8,0-68.6-1.4-100.7-4-13.4-1.1-26.6-2.4-39.4-3.9-21.6-2.6-42.3-5.7-61.8-9.3-14.4-2.7-28.1-5.6-41.2-8.8-87-21.3-142.6-53.7-142.6-90.1,0-64,172.7-116,385.7-116S1114.9,834.4,1114.9,898.4Z"/></g><g class="cls-9"><g id="Spiegel" class="cls-10"><path class="cls-11" d="M898.2,993.7a17.2,17.2,0,0,0-3.5,7.5c-11.1,1.6-22.5,3.1-34.1,4.3-.1-7.6-2.9-14.8-2.3-22.4.2-3.3-.9-5.1-4.6-5.5-6.4-.7-10.8-5.2-14.9-9.4s-.4-7.6.4-11.3a15,15,0,0,0,.2-2c.5-5.4,6.2-11.7,11.6-12s6.3-1.9,8.7-4.8c9.7-11.2,25.3-13.6,36.7-6,1.8,1.3,3.8,2.5,3.8,4.9-.2,8,1.2,16-1.3,23.9s-4.6,15.6.6,23.4C901.4,987.2,900.5,990.8,898.2,993.7Z"/><path class="cls-11" d="M1023.9,967.6a13.2,13.2,0,0,1-1.9,2.9l-2.2,2.2a575.3,575.3,0,0,1-56.7,16c-.2-5.4,2.8-10.5,2-15.5-1.5-8.8-3.3-17.6-4.7-26.4-1-7.1,3.1-16.3,9.9-18.6,10.9-3.8,20.6-1.3,28,8.1a24.1,24.1,0,0,0,13.9,8.8C1019.7,946.9,1026.5,960.4,1023.9,967.6Z"/><path class="cls-12" d="M529.9,976.3c-1.8,6.1-3.2,12.4-2.6,19-14.4-2.7-28.1-5.6-41.2-8.8a25.2,25.2,0,0,0-1.5-3.4c-4.4-9.2-11.3-16.9-15.9-25.9-1.7-3.2-3.5-6.3-2.4-10.3,1.8-6.7,7.1-7.9,12.6-8.5,9.6-1,19.3-.5,28.7-3.2,7.5-2.2,13.4.5,17.5,7.3,2.6,4.4,2.8,9.3,3.4,13.9C529.4,962.9,532.1,969,529.9,976.3Z"/><path class="cls-12" d="M649.9,954.5c-3.1,5.9-7,11.3-10.2,17.1-4.5,8.1-9.3,15.9-9.8,25.8a80.7,80.7,0,0,1-1.4,11c-13.4-1.1-26.6-2.4-39.4-3.9V990.9c-.1-2.8.2-5.8-.7-8.4-3.4-10.3-3.2-20.3,1.2-30.2a15,15,0,0,0,1.4-7.2c-.5-4.9,2.2-7.4,6.4-8.7s9.6-3.2,14.9-.7,10.4,1,15.4,1.7a94.1,94.1,0,0,1,15.4,3.3C650.7,943.2,653.7,947.4,649.9,954.5Z"/></g></g><g id="R체ckansicht"><image class="cls-13" width="413" height="951" transform="translate(727.2 -19.7)" xlink:href="human_muscles4.png"/><path class="cls-14" d="M930.3,14.8c2,0,4.1.2,6,0,15.3-1.2,24.8,7.4,31.7,19.3,4.2,7.3,4,15.9,3.4,24.3-.3,3-1,5.9,3.1,7.2,1.8.5,1.7,2.7,1.8,4.3.2,8.6-2.9,16.5-4.5,24.8a5.4,5.4,0,0,1-3.7,4.3c-4,1.6-5.2,4.7-4.8,8.8a61.4,61.4,0,0,1,.1,10.5c-.5,4.9,1.8,7.7,5.8,10.1,12.7,7.6,26.5,13,39.6,20,8.5,4.5,18.1,6.9,27.7,8.7,4.6.8,8.3,3.3,11.5,6.7,5.1,5.5,10,11.2,13.3,17.9,4.8,9.7,5.4,20.1,3.6,30.7a20.3,20.3,0,0,0,1.3,12.6c3.3,6.9,3.5,14.4,4.2,21.9,1.2,14.6,2.7,29.1,4.1,43.7a8.3,8.3,0,0,0,1.9,4.5c8,11.4,10.4,24.1,11.3,38,1.8,25.5,1.2,50.9,1.7,76.3.1,3,1.5,5.5,2.8,7.9a28.5,28.5,0,0,1,3.4,14.3c-.2,12.2.2,24.4-.1,36.5-.4,14.4-6.4,25.6-19.6,32.2-8.4,4.3-13.8,1.1-13.7-8.2,0-3.7-.5-6.5-4.1-8.7s-5.1-9.2-5.9-14.2-.5-11.7,2.2-17.1a19.9,19.9,0,0,0,1.6-10.7,27.5,27.5,0,0,1,4.2-16.6c1.9-3.1,1.7-5.8.4-9.3-7.6-21-17.5-40.9-25-61.9-3.6-10.4-3.2-20.8-1.3-31.3.9-5.4.4-11-2.1-15.6s-4.6-12.1-5.9-18.5c-.2-1.2.3-3-1.7-3s-1.8,1.3-2,2.5c-3.8,16.6-11,32-16.2,48.1a19.9,19.9,0,0,0-1,6.4c-.1,9.5-.4,18.9-1.4,28.4-.5,4.1,1.4,8.4,2.1,12.6,1.1,5.9,4,11.2,5.7,16.9,2.7,8.9,4.7,18.1,3.9,27.3-1,12.2,1.5,23.5,5.4,34.7,2.7,8,4.3,16.1,2.2,24.5a43.6,43.6,0,0,0-.9,11.4,132.4,132.4,0,0,1-6,40c-4.3,14.7-8.5,29.5-9.4,45.1-.4,5.6-.5,11.9-3,17.5a5.3,5.3,0,0,0-.3,3.9c2.8,6,2,12.5,1.6,18.7a35.4,35.4,0,0,0,4.7,20.5c5.1,9.1,6.6,18.8,7.2,28.8.7,14.1,1.6,28.3-3.1,42.1-.7,1.9-.5,4.3-.5,6.4.1,10.5-2.3,20.7-3.7,31-1.6,12-5.8,23.4-8.1,35.2-1.7,8.8-.7,18.3-.1,27.4a107.6,107.6,0,0,1-.4,11.4c-.2,4.1.8,6.2,5.5,6.1,6.2-.2,11.1,2.7,15.2,7.3a11.2,11.2,0,0,1,1.9,2.9c2.7,7.1-4.2,20.7-11.7,22.5a24.1,24.1,0,0,0-13.9,8.8c-7.4,9.4-17.1,11.8-28,8.1-6.8-2.4-10.9-11.5-9.9-18.6,1.4-8.8,3.2-17.6,4.7-26.4.9-5.6-2.8-11.2-1.8-17.1.3-1.8-.1-4.1.8-5.4,6.8-9.5,3.5-19.9,2.9-30-.3-4.1-1.7-8.3-1.5-12.4,1.3-17.5-4.4-33.4-11.2-49a17.7,17.7,0,0,1-1.2-6.4c-.2-15.9-.2-31.8,3.6-47.5,1.3-5.1.9-10.6,2.2-15.8.5-2.3-1-4.2-2.3-5.9-7-9.5-10.2-20.1-10.4-32a133.1,133.1,0,0,0-5.4-35.3,23.2,23.2,0,0,1-.6-5.9c0-7.2-.2-14.4.2-21.5a46.4,46.4,0,0,0-3.3-19.5,10.5,10.5,0,0,1-.9-3.8c.4-13.6-2.9-26.9-2-40.4.1-2.3.7-5.5-3.2-5.5s-3.4,3-3.5,5.5c0,7.1,0,14.3-.1,21.5-.1,10.5-2.3,20.6-5.3,30.6-.9,3-.7,6-.7,9,0,15.7-.4,31.3-5.4,46.7a49.3,49.3,0,0,0-2.7,19.6c1,11.2-.7,21.5-8.2,30.4-2.9,3.4-3.2,7.6-2.5,11.8,1.5,9.7,3.1,19.3,4.8,29,2.8,16.8,3.3,33.4-3.4,49.5a10.1,10.1,0,0,1-1.2,2.3c-6.2,7.3-6.5,16.1-6.7,25.2-.3,13-2.5,25.8-2,38.8.2,4.9,1,9.2,4.1,13s3.3,6.5,1.3,9.4c-5.2,7.8-3,15.6-.6,23.4s1.1,15.9,1.3,23.8c0,2.5-2,3.7-3.8,5-11.4,7.6-27,5.2-36.7-6-2.4-2.9-4.7-4.6-8.7-4.8s-11-6.6-11.6-12c-.1-.7,0-1.3-.1-2-.9-3.8-3.9-7.9-.5-11.3s8.5-8.7,14.9-9.4c3.7-.4,4.9-2.2,4.6-5.6-.6-7.8,2.5-15.3,2.2-23.2-.3-11.6-3.2-22.6-5.5-33.8s-4.1-19.7-5.3-29.8-.7-23.4-5.2-34.7c-3.2-7.9-2.4-16.5-1.4-25.1,1.5-13.9,3.8-27.5,9.2-40.3,3.5-8.1,4-16.2,3.9-24.7-.1-13.8,1.3-27.8-2.4-41.2-2.7-9.7-3.2-19.8-7.2-29.2-3.2-7.5-4.2-15.6-5.6-23.6-2.6-14.6-1-29.2-1.7-43.8-.6-11.5,2-22.4,5.7-33.1.4-1.3,1.1-2.6,1-3.8-1-10.1,2.3-19.8,2.3-29.8,0-5.5,1.9-11,3.4-16.4a155.4,155.4,0,0,0,5.5-46.6c-.6-13.7-8.5-24.4-12-36.7-2.2-7.6-5.6-14.9-7.8-22.6-.3-.9-.3-2.3-1.6-2.3s-1.7,1.5-1.8,2.6c-.6,6.1-3.6,11.3-6,16.8s-1.7,11.7-.2,17.6c3,11.5,2.3,22.7-2.9,33.5-7.9,16.4-15.1,33-20.4,50.4a21.4,21.4,0,0,1-2.3,5.4c-3.2,5.5-4.2,10.9.1,16.3,2.1,2.7,1.6,6.1,2.2,9.1,2.7,12.6,5.7,25.4,1.4,38.3-.8,2.3-2,4.9-4.1,6.1s-3,4.2-2,7.1c1.9,5-2.6,12-7.7,11.6s-10.3-1.2-14-5.6c-7-8.2-13.3-16.4-12.2-28.3.8-9.3-.1-18.6-1.2-27.9s2.2-19.3,6.1-28.4a17.8,17.8,0,0,0,1.4-7.2c0-20.3.1-40.6.1-60.9,0-9.5,2.1-18.9,2.3-28.4.2-5.5,3.8-10.4,7.3-14.5a27.9,27.9,0,0,0,6.1-18.1c.3-13.4,3.4-26.6,3.6-40.1.1-7.3,1.2-14.9,4.5-21.9a7.5,7.5,0,0,0,.7-5.3c-4.6-15.7.3-29.5,9.1-42.3,7.4-10.8,17-16.9,30.8-17.2,7.5-.2,14.6-4.4,21.3-8.4,9.3-5.6,18.4-11.4,28.4-15.6a36.8,36.8,0,0,0,9.1-6,6.8,6.8,0,0,0,2.8-6.1c-.1-3.1-.2-6.3-.1-9.4s-.2-8.3-5.7-9.5c-2.5-.6-4.1-3.6-4.1-5.9.3-7.8-3.3-15.2-2.4-23.1.3-2.6,0-5.2,3.4-5.7,1.4-.3,1.3-1.2,1.1-2.3-.9-5.9.2-12-.5-17.9-1.5-12.9,16.7-31.4,29.8-30C923.3,15.2,926.8,14.8,930.3,14.8Z"/><path class="cls-15" d="M930.3,14.8c2,0,4.1.2,6,0,15.3-1.2,24.8,7.4,31.7,19.3,4.2,7.3,4,15.9,3.4,24.3-.3,3-1,5.9,3.1,7.2,1.8.5,1.7,2.7,1.8,4.3.2,8.6-2.9,16.5-4.5,24.8a5.4,5.4,0,0,1-3.7,4.3c-4,1.6-5.2,4.7-4.8,8.8a61.4,61.4,0,0,1,.1,10.5c-.5,4.9,1.8,7.7,5.8,10.1,12.7,7.6,26.5,13,39.6,20,8.5,4.5,18.1,6.9,27.7,8.7,4.6.8,8.3,3.3,11.5,6.7,5.1,5.5,10,11.2,13.3,17.9,4.8,9.7,5.4,20.1,3.6,30.7a20.3,20.3,0,0,0,1.3,12.6c3.3,6.9,3.5,14.4,4.2,21.9,1.2,14.6,2.7,29.1,4.1,43.7a8.3,8.3,0,0,0,1.9,4.5c8,11.4,10.4,24.1,11.3,38,1.8,25.5,1.2,50.9,1.7,76.3.1,3,1.5,5.5,2.8,7.9a28.5,28.5,0,0,1,3.4,14.3c-.2,12.2.2,24.4-.1,36.5-.4,14.4-6.4,25.6-19.6,32.2-8.4,4.3-13.8,1.1-13.7-8.2,0-3.7-.5-6.5-4.1-8.7s-5.1-9.2-5.9-14.2-.5-11.7,2.2-17.1a19.9,19.9,0,0,0,1.6-10.7,27.5,27.5,0,0,1,4.2-16.6c1.9-3.1,1.7-5.8.4-9.3-7.6-21-17.5-40.9-25-61.9-3.6-10.4-3.2-20.8-1.3-31.3.9-5.4.4-11-2.1-15.6s-4.6-12.1-5.9-18.5c-.2-1.2.3-3-1.7-3s-1.8,1.3-2,2.5c-3.8,16.6-11,32-16.2,48.1a19.9,19.9,0,0,0-1,6.4c-.1,9.5-.4,18.9-1.4,28.4-.5,4.1,1.4,8.4,2.1,12.6,1.1,5.9,4,11.2,5.7,16.9,2.7,8.9,4.7,18.1,3.9,27.3-1,12.2,1.5,23.5,5.4,34.7,2.7,8,4.3,16.1,2.2,24.5a43.6,43.6,0,0,0-.9,11.4,132.4,132.4,0,0,1-6,40c-4.3,14.7-8.5,29.5-9.4,45.1-.4,5.6-.5,11.9-3,17.5a5.3,5.3,0,0,0-.3,3.9c2.8,6,2,12.5,1.6,18.7a35.4,35.4,0,0,0,4.7,20.5c5.1,9.1,6.6,18.8,7.2,28.8.7,14.1,1.6,28.3-3.1,42.1-.7,1.9-.5,4.3-.5,6.4.1,10.5-2.3,20.7-3.7,31-1.6,12-5.8,23.4-8.1,35.2-1.7,8.8-.7,18.3-.1,27.4a107.6,107.6,0,0,1-.4,11.4c-.2,4.1.8,6.2,5.5,6.1,6.2-.2,11.1,2.7,15.2,7.3a11.2,11.2,0,0,1,1.9,2.9c2.7,7.1-4.2,20.7-11.7,22.5a24.1,24.1,0,0,0-13.9,8.8c-7.4,9.4-17.1,11.8-28,8.1-6.8-2.4-10.9-11.5-9.9-18.6,1.4-8.8,3.2-17.6,4.7-26.4.9-5.6-2.8-11.2-1.8-17.1.3-1.8-.1-4.1.8-5.4,6.8-9.5,3.5-19.9,2.9-30-.3-4.1-1.7-8.3-1.5-12.4,1.3-17.5-4.4-33.4-11.2-49a17.7,17.7,0,0,1-1.2-6.4c-.2-15.9-.2-31.8,3.6-47.5,1.3-5.1.9-10.6,2.2-15.8.5-2.3-1-4.2-2.3-5.9-7-9.5-10.2-20.1-10.4-32a133.1,133.1,0,0,0-5.4-35.3,23.2,23.2,0,0,1-.6-5.9c0-7.2-.2-14.4.2-21.5a46.4,46.4,0,0,0-3.3-19.5,10.5,10.5,0,0,1-.9-3.8c.4-13.6-2.9-26.9-2-40.4.1-2.3.7-5.5-3.2-5.5s-3.4,3-3.5,5.5c0,7.1,0,14.3-.1,21.5-.1,10.5-2.3,20.6-5.3,30.6-.9,3-.7,6-.7,9,0,15.7-.4,31.3-5.4,46.7a49.3,49.3,0,0,0-2.7,19.6c1,11.2-.7,21.5-8.2,30.4-2.9,3.4-3.2,7.6-2.5,11.8,1.5,9.7,3.1,19.3,4.8,29,2.8,16.8,3.3,33.4-3.4,49.5a10.1,10.1,0,0,1-1.2,2.3c-6.2,7.3-6.5,16.1-6.7,25.2-.3,13-2.5,25.8-2,38.8.2,4.9,1,9.2,4.1,13s3.3,6.5,1.3,9.4c-5.2,7.8-3,15.6-.6,23.4s1.1,15.9,1.3,23.8c0,2.5-2,3.7-3.8,5-11.4,7.6-27,5.2-36.7-6-2.4-2.9-4.7-4.6-8.7-4.8s-11-6.6-11.6-12c-.1-.7,0-1.3-.1-2-.9-3.8-3.9-7.9-.5-11.3s8.5-8.7,14.9-9.4c3.7-.4,4.9-2.2,4.6-5.6-.6-7.8,2.5-15.3,2.2-23.2-.3-11.6-3.2-22.6-5.5-33.8s-4.1-19.7-5.3-29.8-.7-23.4-5.2-34.7c-3.2-7.9-2.4-16.5-1.4-25.1,1.5-13.9,3.8-27.5,9.2-40.3,3.5-8.1,4-16.2,3.9-24.7-.1-13.8,1.3-27.8-2.4-41.2-2.7-9.7-3.2-19.8-7.2-29.2-3.2-7.5-4.2-15.6-5.6-23.6-2.6-14.6-1-29.2-1.7-43.8-.6-11.5,2-22.4,5.7-33.1.4-1.3,1.1-2.6,1-3.8-1-10.1,2.3-19.8,2.3-29.8,0-5.5,1.9-11,3.4-16.4a155.4,155.4,0,0,0,5.5-46.6c-.6-13.7-8.5-24.4-12-36.7-2.2-7.6-5.6-14.9-7.8-22.6-.3-.9-.3-2.3-1.6-2.3s-1.7,1.5-1.8,2.6c-.6,6.1-3.6,11.3-6,16.8s-1.7,11.7-.2,17.6c3,11.5,2.3,22.7-2.9,33.5-7.9,16.4-15.1,33-20.4,50.4a21.4,21.4,0,0,1-2.3,5.4c-3.2,5.5-4.2,10.9.1,16.3,2.1,2.7,1.6,6.1,2.2,9.1,2.7,12.6,5.7,25.4,1.4,38.3-.8,2.3-2,4.9-4.1,6.1s-3,4.2-2,7.1c1.9,5-2.6,12-7.7,11.6s-10.3-1.2-14-5.6c-7-8.2-13.3-16.4-12.2-28.3.8-9.3-.1-18.6-1.2-27.9s2.2-19.3,6.1-28.4a17.8,17.8,0,0,0,1.4-7.2c0-20.3.1-40.6.1-60.9,0-9.5,2.1-18.9,2.3-28.4.2-5.5,3.8-10.4,7.3-14.5a27.9,27.9,0,0,0,6.1-18.1c.3-13.4,3.4-26.6,3.6-40.1.1-7.3,1.2-14.9,4.5-21.9a7.5,7.5,0,0,0,.7-5.3c-4.6-15.7.3-29.5,9.1-42.3,7.4-10.8,17-16.9,30.8-17.2,7.5-.2,14.6-4.4,21.3-8.4,9.3-5.6,18.4-11.4,28.4-15.6a36.8,36.8,0,0,0,9.1-6,6.8,6.8,0,0,0,2.8-6.1c-.1-3.1-.2-6.3-.1-9.4s-.2-8.3-5.7-9.5c-2.5-.6-4.1-3.6-4.1-5.9.3-7.8-3.3-15.2-2.4-23.1.3-2.6,0-5.2,3.4-5.7,1.4-.3,1.3-1.2,1.1-2.3-.9-5.9.2-12-.5-17.9-1.5-12.9,16.7-31.4,29.8-30C923.3,15.2,926.8,14.8,930.3,14.8Z"/></g><g id="Vorderansicht"><image class="cls-13" width="413" height="948" transform="translate(356.2 -24.7)" xlink:href="human_muscles5.png"/><path class="cls-14" d="M650.7,260.9c-3.4,4.1-3,9.2-4.1,13.7-4,16.8-9.7,33.2-15.1,49.6-3.7,11.1-4,22.2-.3,33.2a28.7,28.7,0,0,1,1.1,10.8,20.8,20.8,0,0,0,2.6,11.5c6.1,10.5,6.8,22.3,8.6,33.9,1.2,8.1,1.1,16.5,3.2,24.5a4.3,4.3,0,0,1,.4,1.9c-.7,16.6,4.6,33.1.5,49.8a29.4,29.4,0,0,0-.2,8.4c1.1,14.7-2.8,28.6-6.7,42.5-2.5,8.9-5,17.8-6.6,26.9a281.5,281.5,0,0,0-4,35.5c-.9,17,3.7,32.7,9.8,48.3a51.4,51.4,0,0,1,3.5,17.9,271.7,271.7,0,0,1-2.3,41.3,229.8,229.8,0,0,1-9.7,39.9c-2.6,8.2-5,16.5-6.8,24.9-.9,3.8-.3,7.8.7,11.8,2,8.3,4.2,16.8,4.6,25.3s5.3,17.7,9.8,25.7c3.2,5.9,7.1,11.3,10.2,17.2s.8,11.3-6.8,13.8a93.7,93.7,0,0,1-15.4,3.2c-5,.8-10.6-.5-15.4,1.8s-10,.8-14.9-.7-6.9-3.8-6.4-8.7a15.6,15.6,0,0,0-1.4-7.3c-4.4-9.8-4.6-19.9-1.2-30.1.9-2.6.6-5.6.7-8.4,0-6.5.1-13-.1-19.5a30,30,0,0,1,3.1-14c2.5-4.8,2.1-9.1.3-13.7a30.6,30.6,0,0,1-1.7-13.1,28.2,28.2,0,0,0-3.2-15.8c-11-18.9-12.9-39.3-11.2-60.4a32.4,32.4,0,0,1,2.4-10.1c6.5-17.6,4.9-34.6-3.6-51a26.2,26.2,0,0,1-3.1-14c.9-14-2.2-27.7-3.4-41.6s-2.5-29.2-3.2-43.8c-.5-9.5-2.2-18.7-3.7-28-.7-3.9-.4-7.9-.5-11.9s-.1-8.4-.2-12.5c0-1.2-.1-2.5-1.7-2.7s-1.9,1.1-2,2.3c-.7,4.5-2.1,8.9-1.9,13.4.7,13.2-1.7,26.2-3.2,39.2-1.9,16.5-1.5,33.2-4.1,49.5a291,291,0,0,0-4.1,40.5c-.1,4.6-2.3,9.4-4.3,13.7-6.9,14.5-5.7,29.2-2.1,44.2,4.8,19.7,5.4,39.5-1.5,59a3.2,3.2,0,0,1-.3.9c-6.9,9.6-9.5,20.2-8.8,31.9.2,3.5-1.2,7.2-2.6,10.6-2.9,7.1-2.3,13.8,2.1,19.8a15.8,15.8,0,0,1,2.4,14.8c-3.2,9.3-1.5,18.3,1,26.8s-.5,13.5-1.4,20c-.6,4.5-.8,9.5-3.4,13.9-4.1,6.7-10,9.5-17.5,7.3-9.4-2.7-19.1-2.3-28.7-3.3-5.5-.5-10.8-1.7-12.6-8.4-1.1-4,.7-7.1,2.4-10.3,4.6-9,11.5-16.7,15.9-25.9,2.7-5.6,4.1-11,3-17.3s1.5-12.8,3-19c2.2-8.8,2.5-17.3-.6-25.9a366.7,366.7,0,0,1-11.2-38c-3.8-15.4-5.2-30.9-5.9-46.7-.5-12.3,2.8-23.7,6.9-34.9s7.2-24.1,6.3-36.9a86.9,86.9,0,0,1,0-13.5c1-10.1-2.3-19.3-5.3-28.7s-5.5-20-7.9-30.1c-7-29.5-3.7-59.3-3.3-89a188.3,188.3,0,0,1,4.9-37.7c2.4-10.5,4.9-20.9,8.3-31.1,1.1-3.3.7-7,1-10.5.5-5.8,2.3-11.3,3.6-16.9a41.4,41.4,0,0,0-2-23.6c-4.8-12.6-9-25.3-10.7-38.8-1-7.8-4-15.4-6.1-23.1-.4-1.4-.8-3.3-2.7-3s-1.2,2-1.6,3.2c-4.3,13.9-3.6,28.1-4.2,42.4a192.5,192.5,0,0,1-4.9,34.5c-2.2,9.7-8.5,18-12.7,27s-8.7,17.6-13.1,26.4a20,20,0,0,0-.5,18.3c2.6,5.9,5,11.9,7.6,17.8a14.6,14.6,0,0,1,.9,5.4v21c0,7.1-1.3,13.6-8.4,17.2-1.7.9-1.7,2.3-1.1,3.9a15.5,15.5,0,0,1,1.2,4.2c1,8.8-1,9.9-9.7,11-12.1,1.6-15.2-7.2-19.5-15-8.4-15.4-8.1-31.8-5.2-48.5,1-6,.1-12,.6-18,.8-8.2,1.6-16.4,4.1-24.3a52.6,52.6,0,0,0,2.4-11.8c1-13.2,1.5-26.4,2.5-39.6.7-9.3,0-18.7,5-27.6,2.4-4.3,1.4-10.4,2.5-15.6a46.6,46.6,0,0,1,3.8-11.8,49.7,49.7,0,0,0,4.7-20.7c-.1-10-.2-20,.7-30a37.2,37.2,0,0,1,3.9-14.3c4.4-8.5,3.1-17.7,4.1-26.7,2-16.9,9-30,25.8-36.9,8.5-3.5,17.4-5.5,26.1-8,13.1-3.8,23.8-11.4,34.8-19,8.5-6,10.9-13.5,9.7-23.1-.4-2.9.1-6-2.2-8-7.8-7-7-17.2-9.9-26-.8-2.6.7-5,2.8-6.5s3.1-4.5,3-7.5c-.1-6.1-1.1-12.3-1.2-18.3-.2-10.3,5.1-18.7,14.4-23.9A31.1,31.1,0,0,1,549.5,9c9.5.6,19.1-.9,28.2,4.2,12.2,6.8,20.6,15.7,19.6,30.7-.3,3,.1,6-.1,9s.2,7.8,3.5,10.9S604,70,603,73.6s-2.6,9.5-4,14.3c-.6,2-1.6,4.3-3.2,4.9-7,2.9-5.7,8.7-5.2,13.9.9,8.3,2.9,15.3,11.2,20.6a204.5,204.5,0,0,0,41.7,19.9c8.8,3,17.7,5.7,25.8,10.6,11.3,6.9,18.8,16.2,17.9,30-.8,12.1,1,23.2,6.5,34.1,3,5.9,2.5,12.9,3.4,19.4a81.7,81.7,0,0,1,.1,14,77.2,77.2,0,0,0,5.4,33.1c4.1,10,6.7,20.8,9.2,31.4,1.2,5.6,1,11.6.8,17.4-.4,13.6-.1,27.5,2.5,40.3,3.6,17.4,4.5,35.1,7.3,52.5s2.1,36.1-7.5,52.8c-3.5,6.1-8.5,9.3-14.6,11-8.7,2.5-15.3-5.3-12.6-14.6.8-2.6.6-3.8-1.8-5.2a9.2,9.2,0,0,1-4.8-9.2c.4-4.7-2.5-9-1.8-13.8,1.8-12.9,2.5-26,8.5-38,2.2-4.4,1.6-8.6-.3-13.3-9.1-21.9-21.3-42.7-26.8-66a127.5,127.5,0,0,1-3.3-23c-.7-12.8-2.8-25.4-3.7-38.2C653.4,268.7,651.6,265,650.7,260.9Z"/><path class="cls-16" d="M650.7,260.9c-3.4,4.1-3,9.2-4.1,13.7-4,16.8-9.7,33.2-15.1,49.6-3.7,11.1-4,22.2-.3,33.2a28.7,28.7,0,0,1,1.1,10.8,20.8,20.8,0,0,0,2.6,11.5c6.1,10.5,6.8,22.3,8.6,33.9,1.2,8.1,1.1,16.5,3.2,24.5a4.3,4.3,0,0,1,.4,1.9c-.7,16.6,4.6,33.1.5,49.8a29.4,29.4,0,0,0-.2,8.4c1.1,14.7-2.8,28.6-6.7,42.5-2.5,8.9-5,17.8-6.6,26.9a281.5,281.5,0,0,0-4,35.5c-.9,17,3.7,32.7,9.8,48.3a51.4,51.4,0,0,1,3.5,17.9,271.7,271.7,0,0,1-2.3,41.3,229.8,229.8,0,0,1-9.7,39.9c-2.6,8.2-5,16.5-6.8,24.9-.9,3.8-.3,7.8.7,11.8,2,8.3,4.2,16.8,4.6,25.3s5.3,17.7,9.8,25.7c3.2,5.9,7.1,11.3,10.2,17.2s.8,11.3-6.8,13.8a93.7,93.7,0,0,1-15.4,3.2c-5,.8-10.6-.5-15.4,1.8s-10,.8-14.9-.7-6.9-3.8-6.4-8.7a15.6,15.6,0,0,0-1.4-7.3c-4.4-9.8-4.6-19.9-1.2-30.1.9-2.6.6-5.6.7-8.4,0-6.5.1-13-.1-19.5a30,30,0,0,1,3.1-14c2.5-4.8,2.1-9.1.3-13.7a30.6,30.6,0,0,1-1.7-13.1,28.2,28.2,0,0,0-3.2-15.8c-11-18.9-12.9-39.3-11.2-60.4a32.4,32.4,0,0,1,2.4-10.1c6.5-17.6,4.9-34.6-3.6-51a26.2,26.2,0,0,1-3.1-14c.9-14-2.2-27.7-3.4-41.6s-2.5-29.2-3.2-43.8c-.5-9.5-2.2-18.7-3.7-28-.7-3.9-.4-7.9-.5-11.9s-.1-8.4-.2-12.5c0-1.2-.1-2.5-1.7-2.7s-1.9,1.1-2,2.3c-.7,4.5-2.1,8.9-1.9,13.4.7,13.2-1.7,26.2-3.2,39.2-1.9,16.5-1.5,33.2-4.1,49.5a291,291,0,0,0-4.1,40.5c-.1,4.6-2.3,9.4-4.3,13.7-6.9,14.5-5.7,29.2-2.1,44.2,4.8,19.7,5.4,39.5-1.5,59a3.2,3.2,0,0,1-.3.9c-6.9,9.6-9.5,20.2-8.8,31.9.2,3.5-1.2,7.2-2.6,10.6-2.9,7.1-2.3,13.8,2.1,19.8a15.8,15.8,0,0,1,2.4,14.8c-3.2,9.3-1.5,18.3,1,26.8s-.5,13.5-1.4,20c-.6,4.5-.8,9.5-3.4,13.9-4.1,6.7-10,9.5-17.5,7.3-9.4-2.7-19.1-2.3-28.7-3.3-5.5-.5-10.8-1.7-12.6-8.4-1.1-4,.7-7.1,2.4-10.3,4.6-9,11.5-16.7,15.9-25.9,2.7-5.6,4.1-11,3-17.3s1.5-12.8,3-19c2.2-8.8,2.5-17.3-.6-25.9a366.7,366.7,0,0,1-11.2-38c-3.8-15.4-5.2-30.9-5.9-46.7-.5-12.3,2.8-23.7,6.9-34.9s7.2-24.1,6.3-36.9a86.9,86.9,0,0,1,0-13.5c1-10.1-2.3-19.3-5.3-28.7s-5.5-20-7.9-30.1c-7-29.5-3.7-59.3-3.3-89a188.3,188.3,0,0,1,4.9-37.7c2.4-10.5,4.9-20.9,8.3-31.1,1.1-3.3.7-7,1-10.5.5-5.8,2.3-11.3,3.6-16.9a41.4,41.4,0,0,0-2-23.6c-4.8-12.6-9-25.3-10.7-38.8-1-7.8-4-15.4-6.1-23.1-.4-1.4-.8-3.3-2.7-3s-1.2,2-1.6,3.2c-4.3,13.9-3.6,28.1-4.2,42.4a192.5,192.5,0,0,1-4.9,34.5c-2.2,9.7-8.5,18-12.7,27s-8.7,17.6-13.1,26.4a20,20,0,0,0-.5,18.3c2.6,5.9,5,11.9,7.6,17.8a14.6,14.6,0,0,1,.9,5.4v21c0,7.1-1.3,13.6-8.4,17.2-1.7.9-1.7,2.3-1.1,3.9a15.5,15.5,0,0,1,1.2,4.2c1,8.8-1,9.9-9.7,11-12.1,1.6-15.2-7.2-19.5-15-8.4-15.4-8.1-31.8-5.2-48.5,1-6,.1-12,.6-18,.8-8.2,1.6-16.4,4.1-24.3a52.6,52.6,0,0,0,2.4-11.8c1-13.2,1.5-26.4,2.5-39.6.7-9.3,0-18.7,5-27.6,2.4-4.3,1.4-10.4,2.5-15.6a46.6,46.6,0,0,1,3.8-11.8,49.7,49.7,0,0,0,4.7-20.7c-.1-10-.2-20,.7-30a37.2,37.2,0,0,1,3.9-14.3c4.4-8.5,3.1-17.7,4.1-26.7,2-16.9,9-30,25.8-36.9,8.5-3.5,17.4-5.5,26.1-8,13.1-3.8,23.8-11.4,34.8-19,8.5-6,10.9-13.5,9.7-23.1-.4-2.9.1-6-2.2-8-7.8-7-7-17.2-9.9-26-.8-2.6.7-5,2.8-6.5s3.1-4.5,3-7.5c-.1-6.1-1.1-12.3-1.2-18.3-.2-10.3,5.1-18.7,14.4-23.9A31.1,31.1,0,0,1,549.5,9c9.5.6,19.1-.9,28.2,4.2,12.2,6.8,20.6,15.7,19.6,30.7-.3,3,.1,6-.1,9s.2,7.8,3.5,10.9S604,70,603,73.6s-2.6,9.5-4,14.3c-.6,2-1.6,4.3-3.2,4.9-7,2.9-5.7,8.7-5.2,13.9.9,8.3,2.9,15.3,11.2,20.6a204.5,204.5,0,0,0,41.7,19.9c8.8,3,17.7,5.7,25.8,10.6,11.3,6.9,18.8,16.2,17.9,30-.8,12.1,1,23.2,6.5,34.1,3,5.9,2.5,12.9,3.4,19.4a81.7,81.7,0,0,1,.1,14,77.2,77.2,0,0,0,5.4,33.1c4.1,10,6.7,20.8,9.2,31.4,1.2,5.6,1,11.6.8,17.4-.4,13.6-.1,27.5,2.5,40.3,3.6,17.4,4.5,35.1,7.3,52.5s2.1,36.1-7.5,52.8c-3.5,6.1-8.5,9.3-14.6,11-8.7,2.5-15.3-5.3-12.6-14.6.8-2.6.6-3.8-1.8-5.2a9.2,9.2,0,0,1-4.8-9.2c.4-4.7-2.5-9-1.8-13.8,1.8-12.9,2.5-26,8.5-38,2.2-4.4,1.6-8.6-.3-13.3-9.1-21.9-21.3-42.7-26.8-66a127.5,127.5,0,0,1-3.3-23c-.7-12.8-2.8-25.4-3.7-38.2C653.4,268.7,651.6,265,650.7,260.9Z"/></g><path id="po-shape" class="cls-17" d="M899.1,477.4c18.1-.4,29.6-14.3,25.5-32.9a62.3,62.3,0,0,1-1.4-11.3c-.2-4.8-.8-9.9-3.7-13.7-5.4-7.2-11.4-13.9-17.4-20.6-4.6-5.2-8.8-5.7-15.2-2.6s-11.1,8.9-15.6,14.4c-8.2,10.2-16.8,20.2-21.7,32.7a9.7,9.7,0,0,0-.2,7.1c4.1,11.4,7.9,23,11.8,34.4,1.5,4.6,4.3,5.7,7.6,2.1C876.5,478.7,886.2,477.4,899.1,477.4Zm36-26.3c.4,4.6-1.1,9.3,1.7,13,5.6,7.3,13,12.7,22.2,13,12.3.4,23.2,3.5,32.7,11.1,3,2.4,4.4,1.8,5.6-1.8,3.1-9.8,6.4-19.6,10-29.2,2.9-7.7,2-14.7-1.4-22.1-6.9-15.4-19.3-26.1-31.1-37.3-3.3-3.1-8.1-5.4-12.3-2.1-8.5,6.7-17,13.7-22,23.6S935.7,440.5,935.1,451.1Z"/><g id="brust-shape"><path id="untere_brust-shape" class="cls-18" d="M565.2,219.6l80,12.9a1.1,1.1,0,0,1-.2,1.6,72.7,72.7,0,0,1-17.9,11.1c-19.8,7.9-34,6.6-55.2-4.7-2.3-1.2-3.2-3.4-4.2-5.8-1.9-4.5-1.6-6.4-3-15.1Zm-13.3,0c-1.4,8.7-1.1,10.6-3,15.1-1,2.4-1.9,4.6-4.2,5.8-21.2,11.3-35.5,12.6-55.2,4.7a72.7,72.7,0,0,1-17.9-11.1,1.1,1.1,0,0,1-.2-1.6l79.9-12.9Z"/><path id="obere_brust-shape" class="cls-18" d="M583.5,163.1c7.4-.2,14.6,0,22-.9a27,27,0,0,1,15.9,3.1c18.9,9.9,28.8,17.8,28.8,17.8s-83.8-7.6-83.8-7.9C566,165.8,574.2,163.3,583.5,163.1Zm-50.5,0c-7.3-.2-14.6,0-21.9-.9a26.9,26.9,0,0,0-15.9,3.1c-18.9,9.9-28.9,17.8-28.9,17.8s83.8-7.6,83.9-7.9C550.6,165.8,542.4,163.3,533,163.1Z"/><path id="mittlere_brust-shape" class="cls-18" d="M566.9,175.4l83.8,7.9s13.4,11,15.5,19.9a.5.5,0,0,1,.1.3,19.3,19.3,0,0,1-1,11.5c-1.8,3.8-6,4.9-7.5,6.5a152.4,152.4,0,0,1-11.7,11.1h-.9a1,1,0,0,0-.5-.4c-4.8-1.7-18.5-3.4-42.1-6.6-10.4-1.4-22.8-5.2-37.1-5.9h-.3l-1.1-.2c-1.5-9.2-2.6-9.8-2.2-14.5a61,61,0,0,0,.6-7.1,34.6,34.6,0,0,0-1.2-8.6C559.9,183.8,565,180.2,566.9,175.4Zm-17.2,0-83.9,7.9s-13.4,11-15.5,19.9v.3a18.6,18.6,0,0,0,1,11.5c1.8,3.8,5.9,4.9,7.5,6.5a152.4,152.4,0,0,0,11.7,11.1h.9a1,1,0,0,1,.5-.4c4.8-1.7,18.5-3.4,42.1-6.6,10.4-1.4,22.7-5.2,37.1-5.9h.2l1.1-.2c1.5-9.2,2.7-9.8,2.3-14.5a44.9,44.9,0,0,1-.6-7.1,35.4,35.4,0,0,1,1.1-8.6C556.7,183.8,551.6,180.2,549.7,175.4Z"/></g><g id="Bauch"><path id="seitliche_bauch-shape" class="cls-17" d="M858.8,382.6c5.3-3.9,9.9-7.1,14.3-10.6,2.6-2,3.5-4.8,1.8-7.9-4.8-8.9-9.7-17.7-14.6-26.6l-1.5.6Zm144-45.3-1.5-.6c-4.9,8.9-9.8,17.7-14.7,26.7-1.6,3-.8,5.8,1.9,7.8,4.4,3.5,9,6.8,14.3,10.7ZM527.2,394.9c1.4-2.5.9-4.8,0-7.2-6.8-16.8-10.8-34.2-9.9-52.4.2-3.8-1.6-6.4-4.3-8.5-10-7.9-18.9-16.8-27.7-25.9-.8-.9-1.5-2.6-3.1-1.5s-.6,2.1-.3,3.2a142.7,142.7,0,0,0,6.8,21.3c3.4,8,6.7,16,4.8,25-.8,3.7,1.4,6,4.2,7.8,4.5,2.9,8.8,5.9,12,10.4C515.9,376.1,522.3,384.9,527.2,394.9Zm60.2,4.1c1.3-2.4,2.9-4.7,3.8-7.3,4.2-11.4,11.6-20.4,20.5-28.3,2.2-1.9,4.3-3.8,6.5-5.5a12.3,12.3,0,0,0,5-11.3c-.3-5.8-.4-11.6,1.6-17.2s4.9-13.5,7.2-20.2c.9-2.5,2.9-6.1.9-7.3s-4.2,2.4-5.8,4.3c-6.2,7.3-12.7,14.1-21.1,18.8-5.5,3.2-6.7,8.3-6.7,14-.2,14.7-2,29.1-8.3,42.7C588.6,386.9,586.4,392.6,587.4,399Z"/><path id="mittlerer_bauch-shape" class="cls-18" d="M557.2,366c0-9.1-.2-15.6.1-22.1.1-4-1.3-5.6-5.5-5.7-8.6,0-17.3,1.3-25.5-2.5-2.1-1-3,.3-3.1,2.4-.5,10.2,1.1,20.2,3.3,30.1s5.2,18.5,6.9,27.9,5.2,17.7,12.7,24c2.5,2.1,5,2.8,7.9,1.8s2.2-3.5,2.2-5.6C555.6,398.6,557.5,381,557.2,366Zm4.1,14.4h-.1v36.4c0,2.2-.2,4.5,2.3,5.6a6.7,6.7,0,0,0,7-1.1c5.7-4.1,9.4-9.1,10.2-16.3,1.1-9.5,3-18.8,7-27.5,5.6-12.5,6.1-25.7,6.5-39,0-2.5-.2-6.1-4-3.9-7.5,4.5-15.6,4.2-23.7,4-3.9-.1-5.3,1.5-5.3,5.3C561.4,356.1,561.3,368.2,561.3,380.4Zm-40-67.7h-.1v7c.1,7.8.6,8.2,8,11s14.5,1.2,21.8,1.7c3.8.3,5.3-1.4,5.3-5.3-.1-5.8-.7-11.6.4-17.4.8-4-.7-5.5-4.7-5.3-9.3.4-18.5-.3-27.3-4-3-1.3-4.4,0-3.9,3.3S521.1,309.7,521.3,312.7Zm73.9,1.1c0-4,.1-8,0-11.9,0-2.1-.8-3.3-3.1-2.2a54.1,54.1,0,0,1-26.6,4.7c-3.3-.2-4.4,1.5-3.9,4.7,1.1,6.4.8,13,.3,19.4-.3,4.1,1.5,5.2,4.9,4.7a100.4,100.4,0,0,1,13.4-.8c10.9-.3,15-4.4,15-15.1Zm-34-54.4h.1v11.4c.1,3.2,1.7,4.5,5.2,3.8a33.5,33.5,0,0,1,6.3-.5c8.3.5,15.2-2.6,21.9-6.6a10.4,10.4,0,0,0,4.8-9.8c-.3-3.9-4.6-2-7.1-2.6s-8.2-1.4-12-3.3-7.8-3.6-11.8-5.4-7.3-1.4-7.4,4.5Zm-5,1.7c0-4.4.1-8.1-.1-11.7s-2.8-5.4-5.7-3.2c-8.1,6.1-17.3,8.1-27.2,8.3-2.6.1-4.7,1.2-4.7,4.1.1,4.5,1.1,8.5,5.8,10.7a53.8,53.8,0,0,0,18.4,4c4.2.2,9.4,3.3,12.4.1S555.6,264.8,556.2,261.1Zm-12,37.3c11.4-.2,11.4-.2,12.1-10.7v-.5c.6-7.3.1-7.8-7.4-7.8s-17.3.4-25-4.6c-2.6-1.6-3.8-.1-3.4,2.5a36.6,36.6,0,0,1,0,11.9c-.4,2.3,1,3.6,3,4.5C530.4,296.7,537.5,299,544.2,298.4Zm27.1.9c7.1-.1,13.6-2.3,20.2-4.3a4.7,4.7,0,0,0,3.7-4.2c.3-4.3.7-8.6.9-12.9.1-2.3-1-3.9-3.3-2.6-8.2,4.4-17,4.4-25.8,4.1-3.3-.1-4.9,1.3-4.8,4.7s.2,5.7-.4,8.4c-.9,4.3.9,6,4.7,6.4Z"/></g><g id="arme-shape"><path id="trizeps-shape" class="cls-17" d="M830.6,264.4c-2.7-6.7-1.9-13.9-3-21a69.8,69.8,0,0,1-1.4-11.3c.1-4.6-4-5.9-7-6.5s-2,3.1-2.4,4.8c-1.6,6.3-2.9,12.7-4,19s-2.5,15.1-2,22.8c.6,11.1,1.1,22.2-1.5,33.2-.9,4,1,4.5,4,3.5s6.6-4,8.8-7.7C828.7,289.8,827.3,276.8,830.6,264.4Zm214.6,44.3a18.1,18.1,0,0,0-.4-2.2c-4.4-9.5-2.9-18.5,2.2-27.2,1.6-2.8,1.8-5.9,2.3-9,2.1-15.3-4.5-29.1-7.2-43.5-.2-.9-.6-1.6-1.7-1.5s-9.1,7-9,8.8c.9,10.8-3.5,21.3-2,32.2,1,7.2,1.3,14.6,2.2,21.8S1035.4,305,1045.2,308.7Zm18.9-51.9c-2.8,4.7-5.8,8.4-7.4,12.6-4.1,10.9-11.3,20.9-6.7,34,3.9,11.5,10.1,21.8,15.1,32.7C1068.1,309.9,1069,283.9,1064.1,256.8ZM792.2,303.1v27.1c0,1.5,0,3.5,1.9,3.7s1.7-1.9,2-3c5.2-14.6,9.7-29.1,9.5-45-.1-9.3-3.6-16.7-7.7-24.3-.5-1-1.1-2.4-2.4-2.2s-1.1,1.9-1.2,3C792.7,276.6,791.5,290.9,792.2,303.1Zm262.5-40.7c4.6-7.8,10-15.1,8.5-24.9s-4.1-16.8-11-22.8c-1.2-1.1-2.8-2.3-4.5-1.7s-1.5,2.8-1.5,4.4a53.3,53.3,0,0,0,.6,8.9C1048.6,238.5,1055.6,249.6,1054.7,262.4ZM805,263.9a82.8,82.8,0,0,1,1.3-10.6c2.4-11.1,4.5-22.3,6.7-33.6.4-2,.8-4.7-1.2-6s-3.9.9-5.5,2.1a28.1,28.1,0,0,0-3.4,3.5c-6.7,6.7-5.2,15.2-5.8,23.4S800,256.7,805,263.9Z"/><path id="bizeps-shape" class="cls-18" d="M444.3,296.8c2.9-5.6,6.5-10.9,8.7-16.7,4.8-12.9,6.1-26.4,6.2-40.1,0-3.8-.1-7.6,0-11.5s-3.5-7.8-7.5-9.5-5,.5-7.7,1.9c-12,6.6-24.6,69.8-8.6,75.1Zm236.9-.8c16-5.3,3.4-68.5-8.6-75.1-2.8-1.4-4-3.5-7.7-1.9s-7.6,4.3-7.5,9.5V240c.1,13.7,1.3,27.2,6.2,40.1,2.2,5.8,5.8,11.1,8.7,16.7Z"/><path id="unterarm-shape" class="cls-17" d="M816.1,344.6V329.3c0-3.9-2.4-4.5-5.4-3.3s-4.3,3-5.7,5.3c-2.3,3.8-3.4,7.9-4.6,12.1-5.5,19.4-8,39.3-10.8,59.2a73.7,73.7,0,0,0-.3,10.5c.1,1.3.6,2.8,2.1,3.1s2.2-1.1,2.7-2.3,1.5-4,2.3-6.1c4.3-12.1,7.8-24.7,13.7-36.3C814.7,362.4,817.5,353.1,816.1,344.6Zm227.1,10.1a22.9,22.9,0,0,0,.4,4.7c1.5,5.1,4.1,9.8,6.1,14.7,2.8,6.6,5.1,13.4,7.5,20.1,1.4,4.1,4.6,4.5,8.1,3.9s2.7-3.2,2.9-5.4-1.4-6.9-1.8-10.3c-1.3-13.3-4.6-26.2-7.2-39.2-1.3-6.2-3.4-12.2-9.1-16.1-1.4-.9-2.7-2.1-4.5-1.1s-1.4,2.5-1.4,4C1044,338.3,1044.7,346.7,1043.2,354.7ZM780.8,404c4.7-8,19.7-39.3,8.7-67.5-.3,1-2.2-20.2-3.5-25.9-1.6-7.6-6.6-1.3-6.9,0C773.1,331.4,782,383.8,780.8,404Zm296.4-8.9c1.6-1.4,1.1-3,1-4.4,5.6-13.4,7.4-24.7,4.9-40.6,0-2.3-1.4-27.4-2.7-29.1s-8.3-20.5-9-20.5-4.2,42-4.2,43c-.1,16.1,3.3,29.4,6.6,45.3C1074.3,390.9,1074.7,393.7,1077.2,395.1Zm-672.1.1c2-3.9,4.2-7,4.7-11,2-17.3,13.8-18,15.9-35.3,1.9-15.2,8.2-28.1,3.6-42.7-.4-1.2-6.2-14.9-7.9-15s-1.5,5.6-1.8,6.8c-2.8,12.7-11.9,19.2-9.9,30.8-2.3,10.7-4.4,16.6-3.8,27.6s2.6,20.6-1.5,32.2A7,7,0,0,0,405.1,395.2Zm305.8-9.7c-4.1-11.6-2.1-20-1.5-32.2s-1.5-16.8-3.8-27.5c2-11.7-7.1-18.1-9.9-30.8-.3-1.3-.2-7-1.8-6.9s-7.5,13.8-7.9,15c-4.6,14.7,1.7,27.5,3.6,42.8,2.1,17.2,13.9,18,15.9,35.3.5,3.9,2.7,7,4.7,11A7.2,7.2,0,0,0,710.9,385.5Zm-280.5,5.8c.3-.8,20.5-43.2,20.5-43.2l5.3-34.1,2.1-21.8s-8.2.7-11.2,6.3c0,0-9.4,2.1-11,8.7s-4.8,34.3-4.8,34.3L427,378.4c-.5,1.8-1.6,10.4-1.6,10.4Zm260.7-2.5s-1-8.6-1.5-10.4l-4.3-36.9s-3.3-27.7-4.9-34.3-10.9-8.7-10.9-8.7c-3.1-5.6-11.2-6.3-11.2-6.3l2,21.8,5.4,34.1s20.2,42.4,20.4,43.2Z"/></g><g id="Schulter"><path id="hintere_schulter-shape" class="cls-17" d="M1058.6,203.1c-.1-4.3-3.8-6.7-5.8-9.8-8.4-12.9-20.2-22.4-31.7-32.3-1.9-1.7-3.3-.8-4.7.6s-4.2,5.2-7.1,5.2c-7.6-.1-12.1,6-18.5,8-2.7.9-3.4,2.7-1.9,5.5,2.8,5,6.5,9.1,11.6,11.3a234.6,234.6,0,0,0,30.4,11c6.4,1.8,13,2.6,19,5.8C1058.5,212.9,1058.6,212.7,1058.6,203.1Zm-257.7,9.6c2.5.3,3.5-1.2,4.7-2.3a16.7,16.7,0,0,1,6.9-3.8c10.9-2.8,22-5,32.7-8.6s18.6-7.3,24.3-16.4c2.1-3.3,1.8-5.8-2.2-6.9a18.8,18.8,0,0,1-8.1-4.6c-1.5-1.3-3.2-2.6-5.3-2.6-4.1.2-7.4-1.6-10.5-4s-4-1.7-6.3-.1c-9.3,6.9-18,14.3-24.3,24.2C807.9,195.4,803.3,203.4,800.9,212.7Z"/><path id="seitliche_schulter-shape" class="cls-17" d="M1059.7,189.4c1.6-11.5-5-19.3-12.2-26.4s-13.3-9-19-6.9C1033.3,174.1,1048.1,180.2,1059.7,189.4Zm-226.8-31c-5.7-2.1-11.4-.5-19,6.9s-13.7,14.9-12.2,26.4C813.4,182.5,828.1,176.4,832.9,158.4Zm-197.3-7.9c1.9.8,3.8,1.8,5.7,2.4,15.8,5.2,27.5,15.1,35,30,1.2,2.5,3.2,4.6,3.2,7.7-.1,6,.4,12-.4,18-.2,1.9-1.1,4.4,1.7,4.8s2.8-2.4,3.3-4.2a18,18,0,0,0,.3-4c.1-7.1.3-14.3.1-21.4-.4-10.2-5.7-17.7-14.3-22.5s-17.4-7.4-26.3-10.6C641.4,149.8,638.7,149.1,635.6,150.5Zm-161,.2c-8.9,3.2-18.1,5.9-26.3,10.6s-13.9,12.3-14.2,22.5c-.3,7.1-.1,14.3,0,21.4a18,18,0,0,0,.3,4c.5,1.8.6,4.6,3.3,4.2s2-2.9,1.7-4.8c-.8-6-.3-12-.4-18,0-3.1,2-5.2,3.3-7.7,7.4-14.9,19.1-24.8,34.9-30a57.2,57.2,0,0,0,5.7-2.4C479.9,149.1,477.1,149.8,474.6,150.7Z"/><path id="fordere_schulter-shape" class="cls-18" d="M619.3,159.8c22.1,10.6,41.8,23.5,51.5,47a50.8,50.8,0,0,0,.7-18.7l-.3-2.1c-1.4-7.2-4.3-13.8-8.9-18C651.5,158.2,634.6,159.1,619.3,159.8Z"/><path id="fordere_schulter-shape-2" data-name="fordere_schulter-shape" class="cls-18" d="M455.2,168c-4.6,4.2-7.5,10.8-8.8,18a15.5,15.5,0,0,0-.4,2.1,50.8,50.8,0,0,0,.7,18.7c9.7-23.5,29.4-36.4,51.5-47C482.9,159.1,466,158.2,455.2,168Z"/></g><g id="r체cken-shape"><path id="latissimus-shape" class="cls-17" d="M918.2,287.8c-.4-1.7-.5-3.8-1.4-5.5-3.7-6.7-7.4-13.4-11.4-19.9-2.6-4.2-6.6-6.1-11.6-6.7-19.3-2.3-37.7-7.8-54.5-18-1.9-1.1-4.2-3.9-6.6-2.2s-1.3,5.2-.7,7.9a456.6,456.6,0,0,0,17.2,63.9c4,11.3,8.6,22.3,16.9,31.4,5.3,5.7,9.9,6.4,15.9,1.2a52.8,52.8,0,0,0,8.4-9.2c8.3-11.4,16.7-22.8,25.1-34.1C917.4,294,917.8,291.1,918.2,287.8Zm66.3,55.7c7.7-1.3,12.1-6.7,15.1-13.2a293,293,0,0,0,14.9-41.2c4.6-16.1,11-31.7,11.8-48.7.1-1.6,1.7-3.6,0-4.7s-3.4.7-4.9,1.6a155.1,155.1,0,0,1-48.6,17.3c-7.5,1.4-15.9.5-21.2,7.9a74.8,74.8,0,0,0-9.9,19,14.7,14.7,0,0,0,1.6,13.4c6.2,8.7,12.1,17.6,18.5,26.1,4.5,6.1,7.9,13.2,13.8,18.3C978.2,341.5,980.7,343.6,984.5,343.5Z"/><path id="kapuzenmuskel-shape" class="cls-17" d="M874.2,159.1c-3.9,1.2-4.8,2.7-1.9,6.2s6.5,6.7,7.8,11.5a99.6,99.6,0,0,1,3.1,21.7c.5,16.1,4.2,31.4,13.3,44.7,6.3,9.4,12.7,18.7,18.7,28.3.7,1.1,1,2.9,2.5,2.8s1.4-2.4,1.8-3.7,1.6-4.2,1.5-6.3c-.5-14,1.2-28.1-1.4-42.2s-6-31.1-3.5-47a46.1,46.1,0,0,0,.1-10.5c-.5-7.7-4.2-12.5-11.8-14.1C900.2,149.6,881.3,156.8,874.2,159.1Zm68.9,23.4a144.8,144.8,0,0,1-1.7,27.9,210.3,210.3,0,0,0-3.2,42.7c.1,5.6,1.7,11.2.4,16.9-.2.9-.3,2.2,1,2.4s1.7-.9,2.2-1.8c4.3-7.7,9.6-14.8,14.9-21.8,3.4-4.5,8.2-8.1,10.2-13.5,4.7-12.7,9.2-25.5,8.5-39.5-.5-10.8,2-21,10.6-28.8,4.1-3.8,3.6-4.6-1.3-7.6-8.8-5.3-18.9-6.2-28.6-7.9-6.8-1.2-9.4,1.4-11.5,8.2S943.5,174.9,943.1,182.5Z"/><path id="untere_r체cken-shape" class="cls-17" d="M936.1,306.5c0,18.8.5,37.7-.3,56.5-.7,14.6.3,29.3-1.5,43.9-.1,1.2-.4,2.9,1.2,3.4s2-.9,2.9-1.6c9.5-7.7,13.4-18.5,15.8-29.8s.4-21.6,1.1-32.4-3.2-19.6-8.5-28.6C946.8,317.9,942,310.3,936.1,306.5Zm-10.8,72.4c.8-11.3-.6-25.9-1.3-40.5-.5-10.2-.5-20.3-.8-30.5,0-1.1.5-2.6-.9-3.1s-1.7.8-2.3,1.5a68.7,68.7,0,0,0-16.8,43.3c-.4,10.2.9,20.3,1.8,30.4,1.2,12.4,7,21.6,16.7,28.7.8.6,1.6,1.6,2.6,1.2s.9-2,.9-3.1C925.3,398.6,925.3,390.5,925.3,378.9Z"/><path id="rundmuskel-shape" class="cls-17" d="M890.2,249.6A77.3,77.3,0,0,0,872.4,233c-11.2-7.6-22.5-14.9-33.5-22.6-5.4-3.7-13.2-4-18.1.2s-4.4,7.4.4,10.7a131.6,131.6,0,0,0,19.7,11.8C856.4,240.4,871.4,249.6,890.2,249.6Zm150.9-34.9a4.4,4.4,0,0,0-1.7-4c-2.8-2.2-14.2-3.1-17.2-1.2-17.8,11-35.6,21.9-50.9,36.5-.9.9-2.6,1.7-2,3.1s2.3.5,3.5.3c12.9-1.6,24.8-6.1,36.3-11.8,9.4-4.7,18.8-9.4,27.2-15.8C1038.7,220,1041.1,218.1,1041.1,214.7Z"/><path id="rautenmuskel-shape" class="cls-17" d="M964.6,244.8l.8.6c4.5-4,8.9-8.2,13.7-11.9,11.9-9.3,23.7-18.7,36.8-26.3,2-1.2,4.4-3.5.8-4.5-7.1-1.9-13.9-7.6-21.9-2-3.5,2.5-7.7,4.1-11.6,5.9a8.9,8.9,0,0,0-5.2,6.1c-2.2,7.6-2.8,15.7-8,22.3C967.7,237.9,966.3,241.5,964.6,244.8Zm-74.7-2.4c-3.9-7.3-5.5-15.1-7.5-22.7-1.1-3.9-.4-8.8-4.2-11.5-9-6.2-18.3-12.3-29.8-6.1-2.2,1.3-6.6.4-6.5,3.3s3.8,3.7,6.1,5.3c12.1,8.2,24.4,16.2,35.4,25.9C885.6,238.5,887.8,240.4,889.9,242.4Z"/><path id="untergr채tenmuskel-shape" class="cls-17" d="M993.3,192.9c2.3,2.2,2.5,4-.6,5.2s-7,5.6-10.8,3.5-.5-6.7-.6-10.1.9-7.5,1.4-11.3C985,185.8,989.4,189.2,993.3,192.9Zm-115.9-.3c-.2-2.6-.3-5.3-.5-7.9-.1-.8-.3-1.7-1.2-2s-1.5.7-1.8,1.4c-1.8,3.3-4.6,5.7-7.1,8.2s-3.7,4.3,1.1,6.3C877.2,202.3,877.2,202.3,877.4,192.6Z"/><path id="nacken-shape" class="cls-17" d="M906.3,148.2c6.9-1.3,16-9.1,16.6-15.8.7-8.2.4-16.6.2-24.9,0-2.9-4.9-5.4-8.6-5s-3.4,3.2-3.2,5.6a12.9,12.9,0,0,1-3.8,10.4,92.4,92.4,0,0,1-26.2,18.8c-8.1,3.7-15.8,8.4-23.6,12.8-2.7,1.5-4.6,3-.6,5.9,6.5,4.9,6.2,5,13.7,1C870.8,157,905.5,148,906.3,148.2Zm29-37.8c1.2,5.3.9,11.3.9,17.3.1,9.6,4.7,16.2,13.8,18.9a64,64,0,0,0,10.8,1.7,68.4,68.4,0,0,1,29.5,9.8c5,3.1,11.2,2,13.6-3.8s-3.8-4.2-5.7-6.3a9.8,9.8,0,0,0-1.8-.8c-12.9-7.2-27-12.2-38.8-21.5-6.1-4.8-10.7-10-9.5-18.4.3-1.6.3-3.4-1.5-4.4C943.1,100.9,935.2,105.7,935.3,110.4ZM589.5,128.3c0,7.3,1.3,12.8,3.9,18s4.6,7,10.9,5.9c3.3-.6,6.5-1.4,9.7-2.2,1.3-.3,2.8-.9,2.9-2.4s-1.3-1.7-2.3-2.3C606.3,140.4,597.7,136.1,589.5,128.3Zm-61.3-.8c-6.2,5.8-13.1,10.3-19.7,15.2-2.3,1.7-7.1,1.8-6.6,4.9s5.1,2.8,8,4.1,3.2.5,4.8.6a3.4,3.4,0,0,0,3.4-1.7A125.3,125.3,0,0,0,528.2,127.5Z"/></g><g id="beine-shape"><path id="beinbizeps-shape" class="cls-17" d="M903.3,601.6l-.4-4.2c-.4-6.6,9-48.6,9.3-51.1,0,0,3.3-38,3.2-47.1,0-3.5-.5-10.8-.3-14.3.1-1.8-4.8-2.4-6.9-3.3s-3.7,1.2-5.1,2.5a4.7,4.7,0,0,0-1.3,4.2c.7,5.2-1.4,9.8-2.8,14.6-1.8,6.4-3.3,12.8-3.4,19.6a166.1,166.1,0,0,1-1.2,19.9c-1.7,15.3,7.5,54,5.4,59.7Zm58.4.5c-2-5.7,7.2-44.4,5.5-59.7a166.1,166.1,0,0,1-1.2-19.9c-.1-6.8-1.6-13.2-3.4-19.6-1.4-4.8-3.5-9.4-2.8-14.6a5,5,0,0,0-1.3-4.2c-1.5-1.3-3-3.3-5.1-2.5s-7,1.5-6.9,3.3c.2,3.5-.3,10.8-.4,14.3-.1,9.1,3.2,47.1,3.3,47.1.3,2.5,9.7,44.5,9.3,51.1l-.4,4.2ZM858.5,522.6c-6,24.1,7.4,31.1,1.1,52.9,0,0,.5,11.1.6,18.2,0,1.5,4.3,3.8,6.2,4.5s2.8-1.3,3.6-2.7a93.7,93.7,0,0,1,12.9-15.8,14.3,14.3,0,0,0,4.4-11.6,254.1,254.1,0,0,1,3.6-51.5c1.2-7.8,3.7-15.1,5.6-22.7,1.3-5,.8-8.5-1.2-9.9s-8.9,1.7-11.2,3.1C864,499.8,858.5,522.6,858.5,522.6Zm119-35.5c-2.3-1.4-8.3-5.2-11.2-3.1s-2.6,4.9-1.2,9.9c1.9,7.6,4.3,14.9,5.6,22.7a254,254,0,0,1,3.5,51.5,14.3,14.3,0,0,0,4.4,11.6,89.1,89.1,0,0,1,12.9,15.8c.9,1.4,1.8,3.4,3.7,2.7s6.2-3,6.2-4.5c.1-7.1.5-18.2.5-18.2-6.2-21.8,7.1-28.8,1.2-52.9C1003.1,522.6,997.5,499.8,977.5,487.1Z"/><path id="schenkelmuskel-shape" class="cls-18" d="M596.7,621.5l-7.1-18.2c-.7-4.9-2.2-10.6,1.4-15,10.4-12.5,10.1-27.3,8.2-41.7s-4.3-26.9-4-40.6c.2-9.4-.1-18.8,2-28-1.7-.3-2.1.2-2.4.8-3.8,9-7.7,18-11.4,27.1s-3.7,15.8-5.7,23.7-3.7,15.5-4.2,23.4c-.6,10.6,1.1,21.3,2.9,31.8s9.2,25.8,13.4,34.1Zm-69.9-2.6c4.1-8.3,11.8-24.8,13.4-34.1s3.5-21.2,2.8-31.8c-.4-7.9-2.2-15.8-4.1-23.4s-2.7-16.1-5.7-23.7-7.6-18.1-11.5-27.1c-.2-.6-.7-1.1-2.3-.8,2.1,9.2,1.8,18.6,2,28,.3,13.7-2.2,27.1-4,40.6s-2.3,29.2,8.2,41.7c3.6,4.4,2.1,10.1,1.4,15l-7.2,18.2ZM639.3,487.2c.4-14.3-1.3-28.6-6.4-42.3-.9-2.5-.7-7-3.6-6.7s-.9,4.6-1,7.2c-.2,11.8,1.3,23.9-.7,35.4-2.9,16.9-7.9,33.5-13.4,49.9s-5.6,29.9.3,44.8c1.2,3.1,2.1,7.4,6.1,6.9s3.7-4.8,4.4-7.7c3.7-17.2,8.8-34,10.8-51.6C637.2,511.3,639.7,499.5,639.3,487.2ZM480.8,523.1c2,17.6,7.1,34.4,10.8,51.6.7,2.9,1,7.3,4.4,7.7s4.8-3.8,6-6.9c5.9-14.9,5.4-29.7.4-44.8s-10.5-33-13.5-49.9c-1.9-11.5-.4-23.6-.7-35.4,0-2.6,1.2-7-1-7.2s-2.6,4.2-3.5,6.7c-5.1,13.7-6.8,28-6.4,42.3C476.9,499.5,479.4,511.3,480.8,523.1Zm119.5-13.7c-.1,9.3-.4,18.6,3,27.6.5,1.4,1.1,3,2.9,2.9s1.8-1.8,2.2-3c2.8-10.4,5.2-20.9,8.6-31.1a152,152,0,0,0,7-41.1c.8-17.3,1.9-34.8-.9-52.1-.4-2.6-.6-6.7-2.9-6.7s-2.5,4.2-2.7,6.6c-1.3,10.6-4.4,20.7-7.5,30.8-2.5,8-6.3,15.7-7.4,23.8A297.5,297.5,0,0,0,600.3,509.4Zm-86.4-42.3c-1-8.1-4.8-15.8-7.3-23.8-3.2-10.1-6.3-20.2-7.5-30.8-.3-2.4,0-6.6-2.7-6.6s-2.5,4.1-2.9,6.7c-2.8,17.3-1.7,34.8-.9,52.1a152,152,0,0,0,7,41.1c3.4,10.2,5.8,20.7,8.6,31.1.3,1.2.4,2.9,2.1,3s2.5-1.5,3-2.9c3.3-9,3.1-18.3,2.9-27.6A297.5,297.5,0,0,0,513.9,467.1Z"/><path id="wade-shape" class="cls-17" d="M876.3,641.5c-.4-1.9-.6-3.8-1.1-5.8-.9-3.9-1.6-8.7-5.9-9.6s-6.6,3.1-8.8,6.3c-6.8,9.9-8.5,21.6-10.9,32.9-3.7,17.1-4.8,33.9,3.9,50.1,2.3,4.3,4.9,7.8,9.1,10.3s6.3,2.6,9.4.8,3.4-5.5,2.6-8.9c-2.8-11.6-2.7-23.4-1.6-35.2C874.2,668.8,873.7,655.1,876.3,641.5Zm134.8,47c-.3-20.4-1.9-38.4-12-54.4a36.9,36.9,0,0,0-5.2-6.6c-2.8-2.8-5-1.8-6,1.4s-2.9,8.1-2.8,12.6c.6,16.3-.6,32.6,1,48.9,1.1,10-1.2,19.9-.9,29.9.1,3-.5,6.3,3.2,7.6s5.9-.3,8.5-2.6C1008.4,714.7,1011.5,701.2,1011.1,688.5Zm-132.9.5v14.9a63,63,0,0,0,8.7,33.4c1,1.7,1.6,4.1,4,4s3.6-2.1,4.6-4.1a55.5,55.5,0,0,0,6.6-23.9c.6-12.7-1.1-25.2-3.5-37.7-1.5-8.4-4-17-3.2-25.6s.6-14.3.7-21.5c.1-1.5.6-3.6-1.3-4.4s-2.7.9-4,1.7c-7.4,5.2-9.7,13.3-10.2,21.4C879.6,661.1,876.6,674.9,878.2,689Zm103.1-3.6c.5-9.8-.8-22.2-1.1-34.7-.2-10.3-3.8-18.8-12-25.2-1.1-.8-2.1-2.6-3.7-1.8s-.9,2.6-.7,4c1.3,14.2-.3,28.2-2.8,42.2-4.2,22.6-7.1,45.2,4.6,66.8,2.6,4.8,3.1,5.2,6.4.9,6.3-8,8.1-17.8,9.1-27.5C981.9,702.8,981.3,695.4,981.3,685.4ZM589.6,653.9c-2.2,4.8-.7,10-2.4,15-3,8.9-5.7,17.9-5.3,27.7a105.3,105.3,0,0,1,.2,15.9c-.8,8.5,3.4,15.6,7,23C597.9,703.9,600.9,675.2,589.6,653.9Zm-62.1,81.6c3.6-7.4,7.7-14.5,6.9-23a140.3,140.3,0,0,1,.2-15.9c.5-9.8-2.2-18.8-5.2-27.7-1.7-5-.2-10.2-2.5-15C515.7,675.2,518.6,703.9,527.5,735.5Z"/><path id="schienbeinmuskel-shape" class="cls-17" d="M606.4,670.1c.4-8.1,4-15.8,5-23.9.2-1.3.6-4.9,3.3-6.8a6.8,6.8,0,0,1,4-1.2,9.5,9.5,0,0,1,9.4,8.7c1.7,19.6,1.3,39.2.5,58.9-.7,16.9-5.8,33.4-7.4,50.3,0,.7-.3,3.1-1.9,4.2-3.4,2.3-10.8-2.2-14.2-5.3s-8.4-8.7-7.2-35.2S605.2,691.8,606.4,670.1Zm-87.8,49.7c1.3,26.5-4.9,33.1-7.1,35.2s-10.8,7.6-14.2,5.3c-1.7-1.1-1.9-3.5-2-4.2-1.5-16.9-6.6-33.4-7.3-50.3-.9-19.7-1.2-39.3.5-58.9a9.4,9.4,0,0,1,9.3-8.7,7.1,7.1,0,0,1,4.1,1.2c2.7,1.9,3.1,5.5,3.2,6.8,1.1,8.1,4.7,15.8,5.1,23.9C511.4,691.8,517.4,694.3,518.6,719.8Z"/><path id="adduktoren-shape" class="cls-17" d="M551.6,464.7c-.6,1.5-5.4,17.8-6.1,19.3s-2.1,3.7-4.2,2.7-8.6-7.6-9.7-8.7c-3.7-3.3-5.2-8.6-3.9-16.8.4-2.3,12.9-8.2,20.1-7.2C547.8,454,556.7,451.9,551.6,464.7ZM568.8,454c7.2-1,19.7,4.9,20,7.2,1.3,8.2-.2,13.5-3.8,16.8-1.1,1.1-7.6,7.7-9.8,8.7s-3.3-1.2-4.1-2.7-5.5-17.8-6.2-19.3C559.8,451.9,568.8,454,568.8,454Z"/></g></g></g></svg>