<svg xmlns="http://www.w3.org/2000/svg" xmlns:xlink="http://www.w3.org/1999/xlink" viewBox="0 0 207 209"><defs><style>.cls-1{isolation:isolate;}.cls-2{opacity:0.75;mix-blend-mode:multiply;}.cls-3{fill:#b6e0ff;}.cls-4{fill:url(#Unbenannter_Verlauf_3);}.cls-5{font-size:44.38px;fill:#000b68;font-family:ArialNovaCond-Light, Arial Nova;font-weight:300;letter-spacing:0.04em;}.cls-6{letter-spacing:0.07em;}.cls-7{letter-spacing:0.04em;}.cls-8{letter-spacing:0.03em;}</style><radialGradient id="Unbenannter_Verlauf_3" cx="105.5" cy="105" r="284.54" gradientTransform="translate(-22.4 -23.2) scale(1.21 1.22)" gradientUnits="userSpaceOnUse"><stop offset="0" stop-color="#fff"/><stop offset="1" stop-color="#6d6d6d" stop-opacity="0.2"/></radialGradient></defs><title>sortieren_button</title><g class="cls-1"><g id="Text"><g id="sortieren-button"><image class="cls-2" width="213" height="218" transform="translate(-1 -4)" xlink:href="sortieren_button.png"/><path class="cls-3" d="M105.5,12c49.9,0,90.5,41.7,90.5,93s-40.6,93-90.5,93S15,156.3,15,105s40.6-93,90.5-93m0-1C55,11,14,53.1,14,105s41,94,91.5,94S197,156.9,197,105s-41-94-91.5-94Z"/><image class="cls-2" width="213" height="218" transform="translate(-1 -4)" xlink:href="sortieren_button.png"/><ellipse class="cls-4" cx="105.5" cy="105" rx="91" ry="93.5"/><path class="cls-3" d="M105.5,12c49.9,0,90.5,41.7,90.5,93s-40.6,93-90.5,93S15,156.3,15,105s40.6-93,90.5-93m0-1C55,11,14,53.1,14,105s41,94,91.5,94S197,156.9,197,105s-41-94-91.5-94Z"/></g><text class="cls-5" transform="translate(35 157.1) scale(0.87 1)">So<tspan class="cls-6" x="45.6" y="0">r</tspan><tspan class="cls-7" x="61.3" y="0">tie</tspan><tspan class="cls-8" x="103.3" y="0">r</tspan><tspan class="cls-7" x="117.3" y="0">en</tspan></text></g></g></svg>