<?xml version="1.0" encoding="UTF-8" standalone="no"?>
<!DOCTYPE svg PUBLIC "-//W3C//DTD SVG 1.1//EN" "http://www.w3.org/Graphics/SVG/1.1/DTD/svg11.dtd">
<svg version="1.1" xmlns="http://www.w3.org/2000/svg" xmlns:xlink="http://www.w3.org/1999/xlink" preserveAspectRatio="xMidYMid meet" viewBox="203.35554199218748 292.8666748046876 12.999999999999972 13.310000000000002" width="19" height="19.65"><defs><path d="M210.25 296.93L213.36 297.42L211.11 299.81L211.64 303.18L208.86 301.59L206.07 303.18L206.61 299.81L204.36 297.42L207.47 296.93L208.86 293.87L210.25 296.93Z" id="b20dzJztBZ"></path></defs><g><g><use xlink:href="#b20dzJztBZ" opacity="0.13" fill="#c4be70" fill-opacity="1"></use><use xlink:href="#b20dzJztBZ" opacity="0.13" fill="#d0cfca" fill-opacity="1"></use><g><filter id="shadow11920956" x="198.36" y="287.87" width="21" height="21.31" filterUnits="userSpaceOnUse" primitiveUnits="userSpaceOnUse"><feFlood></feFlood><feComposite in2="SourceAlpha" operator="out"></feComposite><feGaussianBlur stdDeviation="0"></feGaussianBlur><feOffset dx="0" dy="0" result="afterOffset"></feOffset><feFlood flood-color="#a09866" flood-opacity="0.8"></feFlood><feComposite in2="afterOffset" operator="in"></feComposite><feMorphology operator="dilate" radius="1"></feMorphology><feComposite in2="SourceAlpha" operator="in"></feComposite></filter><path d="M210.25 296.93L213.36 297.42L211.11 299.81L211.64 303.18L208.86 301.59L206.07 303.18L206.61 299.81L204.36 297.42L207.47 296.93L208.86 293.87L210.25 296.93Z" id="d2l6MUTwwM" fill="white" fill-opacity="1" filter="url(#shadow11920956)"></path></g><g><filter id="shadow2510965" x="198.36" y="287.87" width="21" height="21.31" filterUnits="userSpaceOnUse" primitiveUnits="userSpaceOnUse"><feFlood></feFlood><feComposite in2="SourceAlpha" operator="out"></feComposite><feGaussianBlur stdDeviation="0"></feGaussianBlur><feOffset dx="0" dy="0" result="afterOffset"></feOffset><feFlood flood-color="#596461" flood-opacity="0.8"></feFlood><feComposite in2="afterOffset" operator="in"></feComposite><feMorphology operator="dilate" radius="1"></feMorphology><feComposite in2="SourceAlpha" operator="in"></feComposite></filter><path d="M210.25 296.93L213.36 297.42L211.11 299.81L211.64 303.18L208.86 301.59L206.07 303.18L206.61 299.81L204.36 297.42L207.47 296.93L208.86 293.87L210.25 296.93Z" id="c7LXMlrkS9" fill="white" fill-opacity="1" filter="url(#shadow2510965)"></path></g></g></g></svg>